<svg xmlns="http://www.w3.org/2000/svg" viewBox="0 0 949.72 165.28"><defs><style
    >.cls-1{fill:#fff;}</style></defs><g id="logo_gradient"><path
      class="cls-1"
      d="M507.17,82.82c0,45.55-29,73.24-76.43,73.24H396.17l13.2-29.42h21.55c28.88,0,46.46-16.58,46.46-43.91,0-27.51-17.67-44.27-46.73-44.27h-8L418,60.13l13.74-.54-43.29,96.47,6.78-95-16.57.66L391.58,9.22h39.16C478.2,9.13,507.17,37,507.17,82.82Zm119.41,73.24L584.86,97.67c15.76-5.56,27.15-22,27.15-40.9,0-26.42-22.51-47.55-49.92-47.55H514.17l.09,146.84h29.52V86.65l46.73,69.41Zm-82.9-117.6h19c9.93,0,19,8,19,18.49s-8.93,18.58-19,18.49l-19-.09Zm89.9,117.6H663.1V9.22H633.58Zm125-147.21V91.11l-87-84.63H670.1V156.24h29.51V74l87.18,84.81h1.36V8.85ZM941.82,73.62H872.77v27.24h38c-1,17.67-16,28.42-37,28.42-28.7,0-48.55-21-48.55-46.46,0-27.42,23-46.73,45.82-46.73,13.11,0,26.23,6.38,37.71,17.58l16.4-24.5c-14.4-14-34.71-22.78-53.75-23-42,0-76.25,34.62-76.25,76.61S829.22,159,872.49,159c38.26,0,70.06-26.88,70.06-73A118.54,118.54,0,0,0,941.82,73.62ZM49.9,9.22,7.17,9.31V156.06H49.9c47.46,0,76.42-27.69,76.42-73.24C126.32,37,97.36,9.13,49.9,9.22Zm.18,117.42H36.6V38.46H49.8c29.06,0,46.74,16.76,46.74,44.27C96.54,110.06,79,126.64,50.08,126.64ZM190,159.25c31.25,0,56.67-24.23,56.67-57.48V9.22H217v92.46a27,27,0,1,1-53.93,0V9.22h-29.7v92.55C133.32,135,158.74,159.25,190,159.25ZM342.1,8.85V91.11l-87-84.63h-1.45V156.24h29.51V74l87.18,84.81h1.36V8.85Z"
    /></g></svg>
