<svg id="GradientPurple" xmlns="http://www.w3.org/2000/svg" xmlns:xlink="http://www.w3.org/1999/xlink" viewBox="0 0 218.84 35.43">
    <defs>
        <style>.cls-1{fill:url(#linear-gradient);}</style>
        <linearGradient id="linear-gradient" x1="201.34" y1="35.22" x2="201.34" y2="0.21" gradientUnits="userSpaceOnUse">
            <stop offset="0" stop-color="#6b4494" stop-opacity="0.1" />
            <stop offset="1" stop-color="#6b4494" />
        </linearGradient>
        <linearGradient id="linear-gradient" x1="167.83" y1="35.22" x2="167.83" y2="0.21" xlink:href="#linear-gradient" />
        <linearGradient id="linear-gradient" x1="148.57" y1="35.22" x2="148.57" y2="0.21" xlink:href="#linear-gradient" />
        <linearGradient id="linear-gradient" x1="131.26" y1="35.22" x2="131.26" y2="0.21" xlink:href="#linear-gradient" />
        <linearGradient id="linear-gradient" x1="102.82" y1="35.22" x2="102.82" y2="0.21" xlink:href="#linear-gradient" />
        <linearGradient id="linear-gradient" x1="72.44" y1="35.22" x2="72.44" y2="0.21" xlink:href="#linear-gradient" />
        <linearGradient id="linear-gradient" x1="43.61" y1="35.22" x2="43.61" y2="0.21" xlink:href="#linear-gradient" />
        <linearGradient id="linear-gradient" x1="14.39" y1="35.22" x2="14.39" y2="0.21" xlink:href="#linear-gradient" />
    </defs>
    <title>LogoPurpleGradient</title>
    <g id="Logo">
        <path id="g" class="cls-1" d="M218.77,17.06c0,.11,0,.22,0,.33a3.25,3.25,0,0,1,0,.33,17.05,17.05,0,0,1-.62,4.65,17.4,17.4,0,0,1-1.77,4.18,17.58,17.58,0,0,1-2.73,3.54,17.82,17.82,0,0,1-3.54,2.74A18.07,18.07,0,0,1,206,34.6a17.75,17.75,0,0,1-9.3,0A17.47,17.47,0,0,1,189,30.09a16.88,16.88,0,0,1-2.73-3.54,17.41,17.41,0,0,1-2.4-8.83,17.48,17.48,0,0,1,2.4-8.84A17.41,17.41,0,0,1,189,5.34,17.47,17.47,0,0,1,196.69.83a17.45,17.45,0,0,1,4.65-.62,17.16,17.16,0,0,1,6.88,1.39,17.53,17.53,0,0,1,5.59,3.84L213.2,6l-3.95,3.45a11.76,11.76,0,0,0-3.58-2.35,11,11,0,0,0-4.33-.85,11.23,11.23,0,0,0-4.47.9,11.61,11.61,0,0,0-6.13,6.12,11.55,11.55,0,0,0,0,8.94,11.74,11.74,0,0,0,2.47,3.67,11.56,11.56,0,0,0,3.66,2.46,11.23,11.23,0,0,0,4.47.91,10.49,10.49,0,0,0,3.13-.46,11.86,11.86,0,0,0,2.81-1.25,11.46,11.46,0,0,0,2.35-1.93,12.36,12.36,0,0,0,1.77-2.47H201.34V17.06h17.43Z" />
        <path id="n" class="cls-1" d="M181.83.21v35h-6.37L160.32,12.27v23h-6.49V.21h6.35l15,23.12V.21Z" />
        <path id="i" class="cls-1" d="M145.31.21h6.52v35h-6.52Z" />
        <path id="r" class="cls-1" d="M143.32,35.22h-7.17l-6.38-12h-3.88v12H119.2V.21H132a10.88,10.88,0,0,1,8,3.3,10.88,10.88,0,0,1,3.29,8v.34q0,7.11-6.83,10.48ZM131.38,16.74a4.66,4.66,0,0,0,3.47-1.51,4.89,4.89,0,0,0,1.47-3.59,4.58,4.58,0,0,0-1.47-3.47,4.8,4.8,0,0,0-3.47-1.42h-5.49v10Z" />
        <path id="d" class="cls-1" d="M115,8.37a15.72,15.72,0,0,1,1.64,4.27,24.35,24.35,0,0,1,.58,5.08,24.33,24.33,0,0,1-.58,5.07A15.79,15.79,0,0,1,115,27.07a15.22,15.22,0,0,1-6.18,6.2q-3.68,1.95-11.23,1.95H88.43V.21h9.15q7.55,0,11.23,2A15.18,15.18,0,0,1,115,8.37ZM98.56,28.7q11.79,0,12-11-.21-11-12-11H95.09v22Z" />
        <path id="n-2" data-name="n" class="cls-1" d="M86.44.21v35H80.07L64.93,12.27v23H58.44V.21h6.35l15,23.12V.21Z" />
        <path id="u" class="cls-1" d="M49.92.21h6.52V22.4a12.35,12.35,0,0,1-1,5,12.84,12.84,0,0,1-2.75,4.06,13.33,13.33,0,0,1-4.08,2.75,12.86,12.86,0,0,1-10,0,13,13,0,0,1-6.81-6.81,12.51,12.51,0,0,1-1-5V.21H37.3V22.55A6,6,0,0,0,37.8,25a6.42,6.42,0,0,0,1.35,2,6.22,6.22,0,0,0,2,1.34A6.32,6.32,0,0,0,48.06,27a6.62,6.62,0,0,0,1.36-2,6.2,6.2,0,0,0,.5-2.47Z" />
        <path id="d-2" data-name="d" class="cls-1" d="M26.56,8.37a15.71,15.71,0,0,1,1.63,4.27,24.33,24.33,0,0,1,.59,5.08,24.31,24.31,0,0,1-.59,5.07,15.77,15.77,0,0,1-1.63,4.28,15.28,15.28,0,0,1-6.18,6.2q-3.69,1.95-11.23,1.95H0V.21H9.15q7.55,0,11.23,2A15.24,15.24,0,0,1,26.56,8.37ZM10.13,28.7q11.79,0,12-11-.23-11-12-11H6.66v22Z" />
    </g>
</svg>