<svg
  xmlns="http://www.w3.org/2000/svg"
  xmlns:xlink="http://www.w3.org/1999/xlink"
  viewBox="0 0 1010.36 285.08"
><defs><style
    >.cls-1{fill:url(#New_Gradient_Swatch_1);}.cls-2{fill:url(#New_Gradient_Swatch_1-2);}</style><linearGradient
      id="New_Gradient_Swatch_1"
      x1="287.83"
      y1="352.98"
      x2="805.74"
      y2="-264.23"
      gradientUnits="userSpaceOnUse"
    ><stop offset="0" stop-color="#90d6e4" /><stop
        offset="1"
        stop-color="#837ab9"
      /></linearGradient><linearGradient
      id="New_Gradient_Swatch_1-2"
      x1="861.88"
      y1="278.66"
      x2="947.12"
      y2="177.08"
      xlink:href="#New_Gradient_Swatch_1"
    /></defs><g id="logo_gradient"><path
      class="cls-1"
      d="M537.49,114.32c0,45.55-29,73.24-76.43,73.24H426.49l13.2-29.42h21.56c28.87,0,46.45-16.58,46.45-43.91C507.7,86.72,490,70,461,70h-8l-4.58,21.67,13.75-.54-43.29,96.47,6.77-95L409,93.19,421.9,40.72h39.16C508.52,40.62,537.49,68.5,537.49,114.32ZM656.9,187.56l-41.72-58.39c15.76-5.56,27.15-22,27.15-40.9,0-26.42-22.5-47.55-49.92-47.55H544.49l.09,146.84H574.1V118.15l46.73,69.41ZM574,70H593c9.93,0,18.95,8,18.95,18.49S603,107,593,106.94L574,106.85Zm89.89,117.6h29.52V40.72H663.9Zm125-147.21v82.26L701.87,38h-1.45V187.74h29.51V105.48l87.18,84.81h1.37V40.35Zm183.27,64.77h-69v27.24h38c-1,17.67-16,28.42-37,28.42-28.69,0-48.55-20.95-48.55-46.46,0-27.42,23-46.73,45.82-46.73,13.12,0,26.23,6.38,37.71,17.58l16.4-24.5c-14.39-14-34.71-22.78-53.75-23-42,0-76.24,34.62-76.24,76.61s34.07,76.16,77.34,76.16c38.26,0,70-26.88,70-73A118.54,118.54,0,0,0,972.14,105.12ZM80.22,40.72l-42.73.09V187.56H80.22c47.46,0,76.43-27.69,76.43-73.24C156.65,68.5,127.68,40.62,80.22,40.72Zm.18,117.42H66.92V70H80.13c29.05,0,46.73,16.76,46.73,44.27C126.86,141.56,109.28,158.14,80.4,158.14Zm139.91,32.61c31.24,0,56.66-24.23,56.66-57.48V40.72h-29.7v92.46a27,27,0,1,1-53.93,0V40.72H163.65v92.55C163.65,166.52,189.06,190.75,220.31,190.75ZM372.42,40.35v82.26L285.43,38H284V187.74h29.51V105.48l87.18,84.81H402V40.35Z"
    /><path
      class="cls-2"
      d="M820.74,241.33a6.07,6.07,0,1,1,6.06,6A6.11,6.11,0,0,1,820.74,241.33Zm13.77-19A24.9,24.9,0,0,1,859,197.68c6.15.09,11.6,2.52,16.55,7.3l-5.48,7.47c-3.22-3.17-7.09-5.1-11.16-5.1a15.33,15.33,0,0,0-14.83,15c0,8.41,7.5,14.91,14.8,14.91,4.33,0,8.08-2.31,11.22-5.39l5.45,7.68c-4.16,4.13-9.23,7.23-16.38,7.23A24.78,24.78,0,0,1,834.51,222.29Zm38.86,0a24.57,24.57,0,1,1,24.52,24.46A24.66,24.66,0,0,1,873.37,222.32Zm39.52-.06a15,15,0,1,0-15,14.91A15,15,0,0,0,912.89,222.26Zm58.54-24.78v48.39h-9.49V225.31l-13.59,19.77h-.06l-13.63-19.77v20.56h-9.49V197.48h.53l22.62,31.2,22.58-31.2Z"
    /></g></svg>
