<svg xmlns="http://www.w3.org/2000/svg" xmlns:xlink="http://www.w3.org/1999/xlink" viewBox="0 0 935.37 209.66"><defs><style>.cls-1{fill:url(#linear-gradient);}.cls-2{fill:#92c4ea;}</style><linearGradient id="linear-gradient" x1="467.69" y1="145.43" x2="467.69" y2="-33.93" gradientUnits="userSpaceOnUse"><stop offset="0" stop-color="#92c4ea"/><stop offset="0.5" stop-color="#716fac"/></linearGradient></defs><g id="Layer_2" data-name="Layer 2"><g id="logo_gradient"><path class="cls-1" d="M500,76.61c0,45.55-29,73.24-76.43,73.24H389l13.21-29.42h21.55c28.88,0,46.46-16.58,46.46-43.91,0-27.51-17.67-44.27-46.73-44.27h-8l-4.57,21.67,13.74-.54-43.29,96.47,6.78-95-16.57.66L384.4,3h39.17C471,2.92,500,30.79,500,76.61Zm119.41,73.24L577.69,91.46c15.76-5.56,27.14-22,27.14-40.9C604.83,24.14,582.33,3,554.91,3H507l.09,146.84H536.6V80.44l46.74,69.41Zm-82.9-117.6h19c9.93,0,18.95,8,18.95,18.49s-8.93,18.58-18.95,18.49l-19-.09Zm89.9,117.6h29.51V3H626.41Zm125-147.21V84.9L664.38.27h-1.46V150h29.52V67.77l87.18,84.81H781V2.64ZM934.65,67.41h-69V94.65h38c-1,17.67-16,28.42-37,28.42-28.7,0-48.56-20.95-48.56-46.46,0-27.42,23.05-46.73,45.82-46.73,13.12,0,26.24,6.38,37.72,17.58L918,23c-14.39-14-34.7-22.78-53.74-23C822.23,0,788,34.62,788,76.61s34.07,76.16,77.34,76.16c38.26,0,70-26.88,70-73A118.46,118.46,0,0,0,934.65,67.41ZM42.72,3,0,3.1V149.85H42.72c47.46,0,76.43-27.69,76.43-73.24C119.15,30.79,90.18,2.92,42.72,3Zm.19,117.42H29.42V32.25H42.63c29.06,0,46.73,16.76,46.73,44.27C89.36,103.85,71.78,120.43,42.91,120.43ZM182.81,153c31.25,0,56.66-24.23,56.66-57.48V3H209.78V95.47a27,27,0,1,1-53.93,0V3h-29.7V95.56C126.15,128.81,151.57,153,182.81,153ZM334.93,2.64V84.9L247.93.27h-1.46V150H276V67.77l87.18,84.81h1.36V2.64Z"/><path class="cls-2" d="M783.25,203.62a6.06,6.06,0,1,1,6.06,6A6.11,6.11,0,0,1,783.25,203.62Zm13.77-19A24.89,24.89,0,0,1,821.54,160c6.15.09,11.6,2.52,16.56,7.3l-5.48,7.47c-3.23-3.17-7.09-5.1-11.17-5.1a15.33,15.33,0,0,0-14.82,15c0,8.41,7.5,14.91,14.8,14.91,4.33,0,8.08-2.31,11.22-5.39l5.45,7.68c-4.17,4.13-9.23,7.23-16.38,7.23A24.78,24.78,0,0,1,797,184.58Zm38.86,0a24.57,24.57,0,1,1,24.52,24.46A24.66,24.66,0,0,1,835.88,184.61Zm39.52-.06a15,15,0,1,0-15,14.91A15,15,0,0,0,875.4,184.55Zm58.54-24.78v48.4h-9.49V187.6l-13.6,19.77h-.06L897.17,187.6v20.57h-9.49v-48.4h.53L910.82,191l22.59-31.2Z"/></g></g></svg>